<?xml version="1.0" encoding="UTF-8" standalone="no"?>
<svg width="36px" height="36px" viewBox="0 0 36 36" version="1.1" xmlns="http://www.w3.org/2000/svg" xmlns:xlink="http://www.w3.org/1999/xlink">
    <!-- Generator: Sketch 3.6.1 (26313) - http://www.bohemiancoding.com/sketch -->
    <title>navigation-fermer</title>
    <desc>Created with Sketch.</desc>
    <defs></defs>
    <g id="Page-1" stroke="none" stroke-width="1" fill="none" fill-rule="evenodd">
        <g id="navigation-fermer" fill="#000000">
            <g id="nav-ferme">
                <g id="Layer_1">
                    <path d="M27.0716906,9.266244 C26.7427581,8.93691537 26.2095589,8.93691537 25.8806264,9.266244 L18.3185479,16.8285897 L10.7564695,9.266244 C10.427537,8.93691537 9.89433778,8.93691537 9.56540527,9.266244 C9.23647275,9.59515151 9.23647275,10.1283101 9.56540527,10.4572176 L17.1274837,18.0195634 L9.56540527,25.5819091 C9.23647275,25.9103955 9.23647275,26.4439752 9.56540527,26.7728828 C9.73008211,26.9371259 9.94529916,27.0192475 10.1609374,27.0192475 C10.3765756,27.0192475 10.5917926,26.9371259 10.7564695,26.7728828 L18.3185479,19.2109582 L25.8806264,26.7728828 C26.0453033,26.9371259 26.2605203,27.0192475 26.4761585,27.0192475 C26.6917967,27.0192475 26.9070138,26.9371259 27.0716906,26.7728828 C27.4006231,26.4439752 27.4006231,25.9103955 27.0716906,25.5819091 L19.5096122,18.0195634 L27.0716906,10.4572176 C27.4010443,10.1287313 27.4010443,9.59515151 27.0716906,9.266244 L27.0716906,9.266244 Z M18.0112941,0.0192475248 C8.25529412,0.0192475248 0.318705882,8.03441584 0.318705882,17.886297 C0.319411765,27.7392475 8.25670588,35.7547723 18.0127059,35.7547723 C27.7676471,35.7547723 35.7038824,27.7388911 35.7038824,17.886297 C35.7038824,8.03441584 27.7672941,0.0192475248 18.0112941,0.0192475248 L18.0112941,0.0192475248 Z M18.0127059,34.3293861 L18.012,34.3293861 C9.03494118,34.3293861 1.73117647,26.9529505 1.73047059,17.8866535 C1.73047059,8.82071287 9.03388235,1.44534653 18.0112941,1.44534653 C26.9887059,1.44534653 34.2921176,8.82106931 34.2921176,17.8866535 C34.2921176,26.9525941 26.9894118,34.3293861 18.0127059,34.3293861 L18.0127059,34.3293861 Z" id="Shape"></path>
                </g>
            </g>
        </g>
    </g>
</svg>