<?xml version="1.0" encoding="UTF-8" standalone="no"?>
<svg width="36px" height="36px" viewBox="0 0 36 36" version="1.1" xmlns="http://www.w3.org/2000/svg" xmlns:xlink="http://www.w3.org/1999/xlink">
    <!-- Generator: Sketch 3.6.1 (26313) - http://www.bohemiancoding.com/sketch -->
    <title>navigation</title>
    <desc>Created with Sketch.</desc>
    <defs></defs>
    <g id="Page-1" stroke="none" stroke-width="1" fill="none" fill-rule="evenodd">
        <g id="navigation" fill="#FFFFFF">
            <g id="nav-icon-noir">
                <g id="nav-icon-2">
                    <g id="Page-1">
                        <g id="nav-icon">
                            <g id="Menu">
                                <path d="M1.125,2.27272727 L34.875,2.27272727 C35.496,2.27272727 36,1.76363636 36,1.13636364 C36,0.509090909 35.496,0 34.875,0 L1.125,0 C0.504,0 0,0.509090909 0,1.13636364 C0,1.76363636 0.504,2.27272727 1.125,2.27272727 L1.125,2.27272727 L1.125,2.27272727 Z" id="Shape"></path>
                                <path d="M34.875,11.3636364 L1.125,11.3636364 C0.504,11.3636364 0,11.8727273 0,12.5 C0,13.1272727 0.504,13.6363636 1.125,13.6363636 L34.875,13.6363636 C35.496,13.6363636 36,13.1272727 36,12.5 C36,11.8727273 35.496,11.3636364 34.875,11.3636364 L34.875,11.3636364 L34.875,11.3636364 Z" id="Shape"></path>
                                <path d="M34.875,22.7272727 L1.125,22.7272727 C0.504,22.7272727 0,23.2363636 0,23.8636364 C0,24.4909091 0.504,25 1.125,25 L34.875,25 C35.496,25 36,24.4909091 36,23.8636364 C36,23.2363636 35.496,22.7272727 34.875,22.7272727 L34.875,22.7272727 L34.875,22.7272727 Z" id="Shape"></path>
                            </g>
                        </g>
                    </g>
                </g>
            </g>
        </g>
    </g>
</svg>